<svg width="126" height="24" viewBox="0 0 126 24" fill="none" xmlns="http://www.w3.org/2000/svg">
<path d="M20.341 6.48401C21.4198 8.11466 21.9969 10.0258 22.001 11.981C22.005 13.9362 21.4358 15.8497 20.3637 17.4848C19.2916 19.1199 17.7637 20.4049 15.969 21.1807C14.1743 21.9565 12.1916 22.1892 10.266 21.85" stroke="white" stroke-width="2" stroke-linecap="round" stroke-linejoin="round"/>
<path d="M3.659 17.516C2.58019 15.8849 2.0033 13.9733 1.99971 12.0177C1.99612 10.0622 2.56599 8.14848 3.63881 6.51345C4.71163 4.87842 6.2403 3.59383 8.03566 2.81863C9.83102 2.04344 11.8143 1.81166 13.74 2.15199" stroke="#4863F7" stroke-width="2" stroke-linecap="round" stroke-linejoin="round"/>
<path d="M12 15C13.6569 15 15 13.6569 15 12C15 10.3431 13.6569 9 12 9C10.3431 9 9 10.3431 9 12C9 13.6569 10.3431 15 12 15Z" stroke="white" stroke-width="2" stroke-linecap="round" stroke-linejoin="round"/>
<path d="M19 7C20.1046 7 21 6.10457 21 5C21 3.89543 20.1046 3 19 3C17.8954 3 17 3.89543 17 5C17 6.10457 17.8954 7 19 7Z" stroke="white" stroke-width="2" stroke-linecap="round" stroke-linejoin="round"/>
<path d="M5 21C6.10457 21 7 20.1046 7 19C7 17.8954 6.10457 17 5 17C3.89543 17 3 17.8954 3 19C3 20.1046 3.89543 21 5 21Z" stroke="#4863F7" stroke-width="2" stroke-linecap="round" stroke-linejoin="round"/>
<path d="M40.2784 9.9375H37.7898C37.7443 9.61553 37.6515 9.32955 37.5114 9.07955C37.3712 8.82576 37.1913 8.60985 36.9716 8.43182C36.7519 8.25379 36.4981 8.11742 36.2102 8.02273C35.9261 7.92803 35.6174 7.88068 35.2841 7.88068C34.6818 7.88068 34.1572 8.0303 33.7102 8.32955C33.2633 8.625 32.9167 9.05682 32.6705 9.625C32.4242 10.1894 32.3011 10.875 32.3011 11.6818C32.3011 12.5114 32.4242 13.2083 32.6705 13.7727C32.9205 14.3371 33.2689 14.7633 33.7159 15.0511C34.1629 15.339 34.6799 15.483 35.267 15.483C35.5966 15.483 35.9015 15.4394 36.1818 15.3523C36.4659 15.2652 36.7178 15.1383 36.9375 14.9716C37.1572 14.8011 37.339 14.5947 37.483 14.3523C37.6307 14.1098 37.733 13.8333 37.7898 13.5227L40.2784 13.5341C40.214 14.0682 40.053 14.5833 39.7955 15.0795C39.5417 15.572 39.1989 16.0133 38.767 16.4034C38.339 16.7898 37.8277 17.0966 37.233 17.3239C36.642 17.5473 35.9735 17.6591 35.2273 17.6591C34.1894 17.6591 33.2614 17.4242 32.4432 16.9545C31.6288 16.4848 30.9848 15.8049 30.5114 14.9148C30.0417 14.0246 29.8068 12.947 29.8068 11.6818C29.8068 10.4129 30.0455 9.33333 30.5227 8.44318C31 7.55303 31.6477 6.875 32.4659 6.40909C33.2841 5.93939 34.2045 5.70455 35.2273 5.70455C35.9015 5.70455 36.5265 5.79924 37.1023 5.98864C37.6818 6.17803 38.1951 6.45455 38.642 6.81818C39.089 7.17803 39.4527 7.61932 39.733 8.14205C40.017 8.66477 40.1989 9.26326 40.2784 9.9375ZM44.4176 5.86364V17.5H41.9972V5.86364H44.4176ZM50.2997 17.6705C49.4171 17.6705 48.6539 17.483 48.0099 17.108C47.3698 16.7292 46.8755 16.2027 46.527 15.5284C46.1785 14.8504 46.0043 14.0644 46.0043 13.1705C46.0043 12.2689 46.1785 11.4811 46.527 10.8068C46.8755 10.1288 47.3698 9.60227 48.0099 9.22727C48.6539 8.84848 49.4171 8.65909 50.2997 8.65909C51.1823 8.65909 51.9437 8.84848 52.5838 9.22727C53.2277 9.60227 53.724 10.1288 54.0724 10.8068C54.4209 11.4811 54.5952 12.2689 54.5952 13.1705C54.5952 14.0644 54.4209 14.8504 54.0724 15.5284C53.724 16.2027 53.2277 16.7292 52.5838 17.108C51.9437 17.483 51.1823 17.6705 50.2997 17.6705ZM50.3111 15.7955C50.7126 15.7955 51.0478 15.6818 51.3168 15.4545C51.5857 15.2235 51.7884 14.9091 51.9247 14.5114C52.0649 14.1136 52.1349 13.661 52.1349 13.1534C52.1349 12.6458 52.0649 12.1932 51.9247 11.7955C51.7884 11.3977 51.5857 11.0833 51.3168 10.8523C51.0478 10.6212 50.7126 10.5057 50.3111 10.5057C49.9058 10.5057 49.5649 10.6212 49.2884 10.8523C49.0156 11.0833 48.8092 11.3977 48.669 11.7955C48.5327 12.1932 48.4645 12.6458 48.4645 13.1534C48.4645 13.661 48.5327 14.1136 48.669 14.5114C48.8092 14.9091 49.0156 15.2235 49.2884 15.4545C49.5649 15.6818 49.9058 15.7955 50.3111 15.7955ZM61.7656 13.7841V8.77273H64.1861V17.5H61.8622V15.9148H61.7713C61.5743 16.4261 61.2467 16.8371 60.7884 17.1477C60.3338 17.4583 59.7789 17.6136 59.1236 17.6136C58.5402 17.6136 58.027 17.4811 57.5838 17.2159C57.1406 16.9508 56.794 16.5739 56.544 16.0852C56.2978 15.5966 56.1728 15.0114 56.169 14.3295V8.77273H58.5895V13.8977C58.5933 14.4129 58.7315 14.8201 59.0043 15.1193C59.277 15.4186 59.6425 15.5682 60.1009 15.5682C60.3925 15.5682 60.6652 15.5019 60.919 15.3693C61.1728 15.233 61.3774 15.0322 61.5327 14.767C61.6918 14.5019 61.7694 14.1742 61.7656 13.7841ZM69.3381 17.642C68.6752 17.642 68.0748 17.4716 67.5369 17.1307C67.0028 16.786 66.5786 16.2803 66.2642 15.6136C65.9536 14.9432 65.7983 14.1212 65.7983 13.1477C65.7983 12.1477 65.9593 11.3163 66.2812 10.6534C66.6032 9.98674 67.0313 9.48864 67.5653 9.15909C68.1032 8.82576 68.6922 8.65909 69.3324 8.65909C69.821 8.65909 70.2282 8.74242 70.554 8.90909C70.8835 9.07197 71.1487 9.27652 71.3494 9.52273C71.554 9.76515 71.7093 10.0038 71.8153 10.2386H71.8892V5.86364H74.304V17.5H71.9176V16.1023H71.8153C71.7017 16.3447 71.5407 16.5852 71.3324 16.8239C71.1278 17.0587 70.8608 17.2538 70.5312 17.4091C70.2055 17.5644 69.8078 17.642 69.3381 17.642ZM70.1051 15.7159C70.4953 15.7159 70.8248 15.6098 71.0938 15.3977C71.3665 15.1818 71.5748 14.8807 71.7188 14.4943C71.8665 14.108 71.9403 13.6553 71.9403 13.1364C71.9403 12.6174 71.8684 12.1667 71.7244 11.7841C71.5805 11.4015 71.3722 11.1061 71.0994 10.8977C70.8267 10.6894 70.4953 10.5852 70.1051 10.5852C69.7074 10.5852 69.3722 10.6932 69.0994 10.9091C68.8267 11.125 68.6203 11.4242 68.4801 11.8068C68.34 12.1894 68.2699 12.6326 68.2699 13.1364C68.2699 13.6439 68.34 14.0928 68.4801 14.483C68.6241 14.8693 68.8305 15.1723 69.0994 15.392C69.3722 15.608 69.7074 15.7159 70.1051 15.7159ZM89.7756 5.86364V17.5H87.6506L82.5881 10.1761H82.5028V17.5H80.0426V5.86364H82.2017L87.2244 13.1818H87.3267V5.86364H89.7756ZM95.706 17.6705C94.8234 17.6705 94.0601 17.483 93.4162 17.108C92.776 16.7292 92.2817 16.2027 91.9332 15.5284C91.5848 14.8504 91.4105 14.0644 91.4105 13.1705C91.4105 12.2689 91.5848 11.4811 91.9332 10.8068C92.2817 10.1288 92.776 9.60227 93.4162 9.22727C94.0601 8.84848 94.8234 8.65909 95.706 8.65909C96.5885 8.65909 97.3499 8.84848 97.9901 9.22727C98.634 9.60227 99.1302 10.1288 99.4787 10.8068C99.8272 11.4811 100.001 12.2689 100.001 13.1705C100.001 14.0644 99.8272 14.8504 99.4787 15.5284C99.1302 16.2027 98.634 16.7292 97.9901 17.108C97.3499 17.483 96.5885 17.6705 95.706 17.6705ZM95.7173 15.7955C96.1188 15.7955 96.4541 15.6818 96.723 15.4545C96.992 15.2235 97.1946 14.9091 97.331 14.5114C97.4711 14.1136 97.5412 13.661 97.5412 13.1534C97.5412 12.6458 97.4711 12.1932 97.331 11.7955C97.1946 11.3977 96.992 11.0833 96.723 10.8523C96.4541 10.6212 96.1188 10.5057 95.7173 10.5057C95.312 10.5057 94.9711 10.6212 94.6946 10.8523C94.4219 11.0833 94.2154 11.3977 94.0753 11.7955C93.9389 12.1932 93.8707 12.6458 93.8707 13.1534C93.8707 13.661 93.9389 14.1136 94.0753 14.5114C94.2154 14.9091 94.4219 15.2235 94.6946 15.4545C94.9711 15.6818 95.312 15.7955 95.7173 15.7955ZM106.217 8.77273V10.5909H100.962V8.77273H106.217ZM102.155 6.68182H104.575V14.8182C104.575 15.0417 104.609 15.2159 104.678 15.3409C104.746 15.4621 104.84 15.5473 104.962 15.5966C105.087 15.6458 105.231 15.6705 105.393 15.6705C105.507 15.6705 105.621 15.661 105.734 15.642C105.848 15.6193 105.935 15.6023 105.996 15.5909L106.376 17.392C106.255 17.4299 106.085 17.4735 105.865 17.5227C105.645 17.5758 105.378 17.608 105.064 17.6193C104.481 17.642 103.969 17.5644 103.53 17.3864C103.094 17.2083 102.755 16.9318 102.513 16.5568C102.27 16.1818 102.151 15.7083 102.155 15.1364V6.68182ZM111.678 17.6705C110.78 17.6705 110.007 17.4886 109.359 17.125C108.715 16.7576 108.219 16.2386 107.871 15.5682C107.522 14.8939 107.348 14.0966 107.348 13.1761C107.348 12.2784 107.522 11.4905 107.871 10.8125C108.219 10.1345 108.71 9.60606 109.342 9.22727C109.979 8.84848 110.725 8.65909 111.581 8.65909C112.157 8.65909 112.693 8.75189 113.189 8.9375C113.689 9.11932 114.125 9.39394 114.496 9.76136C114.871 10.1288 115.162 10.5909 115.371 11.1477C115.579 11.7008 115.683 12.3485 115.683 13.0909V13.7557H108.314V12.2557H113.405C113.405 11.9072 113.329 11.5985 113.178 11.3295C113.026 11.0606 112.816 10.8504 112.547 10.6989C112.282 10.5436 111.973 10.4659 111.621 10.4659C111.253 10.4659 110.928 10.5511 110.643 10.7216C110.363 10.8883 110.143 11.1136 109.984 11.3977C109.825 11.678 109.744 11.9905 109.74 12.3352V13.7614C109.74 14.1932 109.82 14.5663 109.979 14.8807C110.142 15.1951 110.371 15.4375 110.666 15.608C110.962 15.7784 111.312 15.8636 111.717 15.8636C111.986 15.8636 112.232 15.8258 112.456 15.75C112.679 15.6742 112.871 15.5606 113.03 15.4091C113.189 15.2576 113.31 15.072 113.393 14.8523L115.632 15C115.518 15.5379 115.286 16.0076 114.933 16.4091C114.585 16.8068 114.134 17.1174 113.581 17.3409C113.032 17.5606 112.397 17.6705 111.678 17.6705ZM124.524 11.2614L122.308 11.3977C122.27 11.2083 122.189 11.0379 122.064 10.8864C121.939 10.7311 121.774 10.608 121.57 10.517C121.369 10.4223 121.128 10.375 120.848 10.375C120.473 10.375 120.157 10.4545 119.899 10.6136C119.642 10.7689 119.513 10.9773 119.513 11.2386C119.513 11.447 119.596 11.6231 119.763 11.767C119.929 11.911 120.215 12.0265 120.621 12.1136L122.2 12.4318C123.049 12.6061 123.681 12.8864 124.098 13.2727C124.515 13.6591 124.723 14.1667 124.723 14.7955C124.723 15.3674 124.554 15.8693 124.217 16.3011C123.884 16.733 123.426 17.0701 122.842 17.3125C122.263 17.5511 121.594 17.6705 120.837 17.6705C119.681 17.6705 118.761 17.4299 118.075 16.9489C117.393 16.464 116.994 15.8049 116.876 14.9716L119.257 14.8466C119.329 15.1989 119.503 15.4678 119.78 15.6534C120.056 15.8352 120.411 15.9261 120.842 15.9261C121.267 15.9261 121.607 15.8447 121.865 15.6818C122.126 15.5152 122.259 15.3011 122.263 15.0398C122.259 14.8201 122.166 14.6402 121.984 14.5C121.803 14.3561 121.522 14.2462 121.143 14.1705L119.632 13.8693C118.78 13.6989 118.145 13.4034 117.729 12.983C117.316 12.5625 117.109 12.0265 117.109 11.375C117.109 10.8144 117.261 10.3314 117.564 9.92614C117.871 9.52083 118.301 9.20833 118.854 8.98864C119.411 8.76894 120.062 8.65909 120.808 8.65909C121.911 8.65909 122.778 8.89205 123.411 9.35795C124.047 9.82386 124.418 10.4583 124.524 11.2614Z" fill="white"/>
</svg>
